<svg width="22" height="25" viewBox="0 0 22 25" fill="none" xmlns="http://www.w3.org/2000/svg">
<path fill-rule="evenodd" clip-rule="evenodd" d="M11.4652 2.2361C14.9249 3.22444 18.2977 4.18796 21.1559 3.5586V3.55872V8.325C18.2922 8.96646 14.9118 8.00375 11.4451 7.01644C7.53404 5.90261 3.51308 4.75746 0 5.84905V1.05971C3.5191 -0.0338708 7.54783 1.11702 11.4652 2.2361ZM21.1559 11.3791C18.2922 12.0205 14.9119 11.0578 11.4452 10.0705L11.4452 10.0705C7.53411 8.95671 3.51311 7.81157 0 8.90317V13.6699C3.51916 12.5762 7.54794 13.727 11.4654 14.8461C14.925 15.8343 18.2978 16.7978 21.1559 16.1685V11.3791ZM21.1559 19.2693C18.2922 19.9107 14.9118 18.948 11.4451 17.9608C7.53404 16.847 3.51309 15.7018 0 16.7934V21.5597C3.51311 20.468 7.5341 21.6132 11.4452 22.727C14.9119 23.7143 18.2922 24.677 21.1559 24.0355V19.2693Z" fill="#11453B"/>
</svg>
